<svg id="Cross-icon" xmlns="http://www.w3.org/2000/svg" width="7.656" height="7.53"><defs><style>.cls-1{fill:#dce0e6;fill-rule:evenodd}</style></defs><path id="Rounded_Rectangle_3" data-name="Rounded Rectangle 3" class="cls-1" d="M782.035 1026.09a.994.994 0 0 1 0 1.41l-5.535 5.54a1 1 0 0 1-1.414-1.42l5.535-5.53a1 1 0 0 1 1.414 0Z" transform="translate(-774.688 -1025.81)"/><path id="Rounded_Rectangle_3-2" data-name="Rounded Rectangle 3" class="cls-1" d="M774.965 1026.09a.994.994 0 0 0 0 1.41l5.535 5.54a1 1 0 0 0 1.414-1.42l-5.535-5.53a1 1 0 0 0-1.414 0Z" transform="translate(-774.688 -1025.81)"/></svg>