<svg xmlns="http://www.w3.org/2000/svg" width="23" height="18"><path d="m523.513 1496.06-8.164-2.06h-.183a.607.607 0 0 0-.628.5 1.528 1.528 0 0 1-.7 1.02 2.294 2.294 0 0 1-1.337.41 2.348 2.348 0 0 1-1.347-.41 1.542 1.542 0 0 1-.7-1.02.62.62 0 0 0-.628-.5h-.206l-8.164 2.06a.617.617 0 0 0-.445.75l1.142 4.35a.633.633 0 0 0 .639.46h3.014v9.77a.613.613 0 0 0 .628.61h12.092a.633.633 0 0 0 .651-.61v-9.77h3.023a.648.648 0 0 0 .616-.46l1.165-4.35a.619.619 0 0 0-.468-.75Zm-1.8 4.33h-3.175a.629.629 0 0 0-.628.62v9.76h-10.84v-9.76a.615.615 0 0 0-.628-.62h-3.151l-.891-3.29 7.011-1.76a3.1 3.1 0 0 0 1.211 1.33 3.553 3.553 0 0 0 1.883.51 3.507 3.507 0 0 0 1.862-.51 3.122 3.122 0 0 0 1.221-1.33l7.011 1.76Z" transform="translate(-501 -1494)" style="fill:#1a7bff;fill-rule:evenodd"/></svg>