<svg xmlns="http://www.w3.org/2000/svg" width="23" height="23" viewBox="0 0 23 23">
  <metadata><?xpacket begin="﻿" id="W5M0MpCehiHzreSzNTczkc9d"?>
<x:xmpmeta xmlns:x="adobe:ns:meta/" x:xmptk="Adobe XMP Core 5.6-c138 79.159824, 2016/09/14-01:09:01        ">
   <rdf:RDF xmlns:rdf="http://www.w3.org/1999/02/22-rdf-syntax-ns#">
      <rdf:Description rdf:about=""/>
   </rdf:RDF>
</x:xmpmeta>
                                                                                                    
                                                                                                    
                                                                                                    
                                                                                                    
                                                                                                    
                                                                                                    
                                                                                                    
                                                                                                    
                                                                                                    
                                                                                                    
                                                                                                    
                                                                                                    
                                                                                                    
                                                                                                    
                                                                                                    
                                                                                                    
                                                                                                    
                                                                                                    
                                                                                                    
                                                                                                    
                           
<?xpacket end="w"?></metadata>
<defs>
    <style>
      .cls-1 {
        fill: #1a7bff;
        fill-rule: evenodd;
      }
    </style>
  </defs>
  <path id="icon2" class="cls-1" d="M523.082,1548.02a11.366,11.366,0,1,0,.918,4.47A11.274,11.274,0,0,0,523.082,1548.02Zm-1.836,9.55a10.1,10.1,0,0,1-3.7,3.69,9.935,9.935,0,0,1-5.068,1.36,9.756,9.756,0,0,1-3.923-.81,9.882,9.882,0,0,1-5.37-5.38,10.189,10.189,0,0,1,.554-9,10.144,10.144,0,0,1,3.684-3.69,10.1,10.1,0,0,1,10.123,0,10.134,10.134,0,0,1,3.7,3.69A10.143,10.143,0,0,1,521.246,1557.57Zm-8.036-5.18v-6.52a0.729,0.729,0,0,0-.729-0.71,0.714,0.714,0,0,0-.692.71v6.62a0.452,0.452,0,0,1,.026.1,0.647,0.647,0,0,0,.188.56l3.76,3.77a0.72,0.72,0,0,0,.969,0,0.689,0.689,0,0,0,0-.99Z" transform="translate(-501 -1541)"/>
</svg>
