<svg xmlns="http://www.w3.org/2000/svg" width="23" height="22" viewBox="0 0 23 22">
  <metadata><?xpacket begin="﻿" id="W5M0MpCehiHzreSzNTczkc9d"?>
<x:xmpmeta xmlns:x="adobe:ns:meta/" x:xmptk="Adobe XMP Core 5.6-c138 79.159824, 2016/09/14-01:09:01        ">
   <rdf:RDF xmlns:rdf="http://www.w3.org/1999/02/22-rdf-syntax-ns#">
      <rdf:Description rdf:about=""/>
   </rdf:RDF>
</x:xmpmeta>
                                                                                                    
                                                                                                    
                                                                                                    
                                                                                                    
                                                                                                    
                                                                                                    
                                                                                                    
                                                                                                    
                                                                                                    
                                                                                                    
                                                                                                    
                                                                                                    
                                                                                                    
                                                                                                    
                                                                                                    
                                                                                                    
                                                                                                    
                                                                                                    
                                                                                                    
                                                                                                    
                           
<?xpacket end="w"?></metadata>
<defs>
    <style>
      .cls-1 {
        fill: #1a7bff;
        fill-rule: evenodd;
      }
    </style>
  </defs>
  <path id="icon4" class="cls-1" d="M523.51,1644.23a1.6,1.6,0,0,0-1.2-.51h-4.98v-0.95a0.77,0.77,0,1,0-1.539,0v0.95h-6.562v-0.95a0.773,0.773,0,0,0-.783-0.77,0.762,0.762,0,0,0-.77.77v0.95h-4.98a1.707,1.707,0,0,0-1.693,1.7v16.89a1.655,1.655,0,0,0,.49,1.19,1.623,1.623,0,0,0,1.2.5h19.614a1.608,1.608,0,0,0,1.2-.49,1.666,1.666,0,0,0,.49-1.2v-16.89A1.634,1.634,0,0,0,523.51,1644.23Zm-1.049,18.08a0.187,0.187,0,0,1-.154.14H502.693a0.187,0.187,0,0,1-.154-0.14v-11.39h19.922v11.39Zm0-12.93H502.539v-3.96a0.129,0.129,0,0,1,.154-0.14h4.98v0.33a0.772,0.772,0,0,0,.77.79,0.783,0.783,0,0,0,.783-0.79v-0.33h6.562v0.33a0.77,0.77,0,1,0,1.539,0v-0.33h4.98a0.129,0.129,0,0,1,.154.14v3.96Zm-13.207,6.13h9.276a0.77,0.77,0,0,0,.769-0.78,0.761,0.761,0,0,0-.769-0.77h-9.276a0.773,0.773,0,0,0-.783.77A0.781,0.781,0,0,0,509.254,1655.51Zm0,3.73h9.276a0.761,0.761,0,0,0,.769-0.77,0.772,0.772,0,0,0-.769-0.79h-9.276a0.784,0.784,0,0,0-.783.79A0.773,0.773,0,0,0,509.254,1659.24Zm-3.553-5.28h1.539v1.55H505.7v-1.55Zm0,3.72h1.539v1.56H505.7v-1.56Z" transform="translate(-501 -1642)"/>
</svg>
