<svg xmlns="http://www.w3.org/2000/svg" width="23" height="18" viewBox="0 0 23 18">
  <metadata><?xpacket begin="﻿" id="W5M0MpCehiHzreSzNTczkc9d"?>
<x:xmpmeta xmlns:x="adobe:ns:meta/" x:xmptk="Adobe XMP Core 5.6-c138 79.159824, 2016/09/14-01:09:01        ">
   <rdf:RDF xmlns:rdf="http://www.w3.org/1999/02/22-rdf-syntax-ns#">
      <rdf:Description rdf:about=""/>
   </rdf:RDF>
</x:xmpmeta>
                                                                                                    
                                                                                                    
                                                                                                    
                                                                                                    
                                                                                                    
                                                                                                    
                                                                                                    
                                                                                                    
                                                                                                    
                                                                                                    
                                                                                                    
                                                                                                    
                                                                                                    
                                                                                                    
                                                                                                    
                                                                                                    
                                                                                                    
                                                                                                    
                                                                                                    
                                                                                                    
                           
<?xpacket end="w"?></metadata>
<defs>
    <style>
      .cls-1 {
        fill: #1a7bff;
        fill-rule: evenodd;
      }
    </style>
  </defs>
  <path id="icon1" class="cls-1" d="M523.513,1496.06l-8.164-2.06h-0.183a0.607,0.607,0,0,0-.628.5,1.528,1.528,0,0,1-.7,1.02,2.294,2.294,0,0,1-1.337.41,2.348,2.348,0,0,1-1.347-.41,1.542,1.542,0,0,1-.7-1.02,0.62,0.62,0,0,0-.628-0.5h-0.206l-8.164,2.06a0.617,0.617,0,0,0-.445.75l1.142,4.35a0.633,0.633,0,0,0,.639.46h3.014v9.77a0.613,0.613,0,0,0,.628.61h12.092a0.633,0.633,0,0,0,.651-0.61v-9.77H522.2a0.648,0.648,0,0,0,.616-0.46l1.165-4.35A0.619,0.619,0,0,0,523.513,1496.06Zm-1.8,4.33h-3.175a0.629,0.629,0,0,0-.628.62v9.76H507.07v-9.76a0.615,0.615,0,0,0-.628-0.62h-3.151l-0.891-3.29,7.011-1.76a3.1,3.1,0,0,0,1.211,1.33,3.553,3.553,0,0,0,1.883.51,3.507,3.507,0,0,0,1.862-.51,3.122,3.122,0,0,0,1.221-1.33l7.011,1.76Z" transform="translate(-501 -1494)"/>
</svg>
