<svg xmlns="http://www.w3.org/2000/svg" width="23" height="20" viewBox="0 0 23 20">
  <metadata><?xpacket begin="﻿" id="W5M0MpCehiHzreSzNTczkc9d"?>
<x:xmpmeta xmlns:x="adobe:ns:meta/" x:xmptk="Adobe XMP Core 5.6-c138 79.159824, 2016/09/14-01:09:01        ">
   <rdf:RDF xmlns:rdf="http://www.w3.org/1999/02/22-rdf-syntax-ns#">
      <rdf:Description rdf:about=""/>
   </rdf:RDF>
</x:xmpmeta>
                                                                                                    
                                                                                                    
                                                                                                    
                                                                                                    
                                                                                                    
                                                                                                    
                                                                                                    
                                                                                                    
                                                                                                    
                                                                                                    
                                                                                                    
                                                                                                    
                                                                                                    
                                                                                                    
                                                                                                    
                                                                                                    
                                                                                                    
                                                                                                    
                                                                                                    
                                                                                                    
                           
<?xpacket end="w"?></metadata>
<defs>
    <style>
      .cls-1 {
        fill: #1a7bff;
        fill-rule: evenodd;
      }
    </style>
  </defs>
  <path id="icon3" class="cls-1" d="M523.564,1595.94a1.464,1.464,0,0,0-1.073-.44h-5.7v-1.82a0.676,0.676,0,0,0-.686-0.68h-7.218a0.685,0.685,0,0,0-.7.68v1.82h-5.685a1.462,1.462,0,0,0-1.072.44,1.392,1.392,0,0,0-.436,1.02v14.58a1.426,1.426,0,0,0,.436,1.04,1.475,1.475,0,0,0,1.072.42h19.983a1.478,1.478,0,0,0,1.073-.42,1.429,1.429,0,0,0,.436-1.04v-14.58A1.392,1.392,0,0,0,523.564,1595.94Zm-13.988-1.6h5.847v1.16h-5.847v-1.16Zm-3.677,17.32h-3.391a0.155,0.155,0,0,1-.137-0.12v-14.58a0.116,0.116,0,0,1,.137-0.12H505.9v14.82Zm11.818,0H507.308v-14.82h10.409v14.82Zm4.9-.12a0.107,0.107,0,0,1-.125.12H519.1v-14.82h3.39a0.107,0.107,0,0,1,.125.12v14.58Z" transform="translate(-501 -1593)"/>
</svg>
